<svg xmlns="http://www.w3.org/2000/svg" viewBox="0 0 440 440">
  <g class="fill-current">
    <rect x="120" y="20" width="100" height="100" />
    <rect x="320" y="20" width="100" height="100" />
    <rect x="20" y="120" width="100" height="100" />
    <rect x="220" y="120" width="100" height="100" />
    <rect x="120" y="220" width="100" height="100" />
    <rect x="320" y="220" width="100" height="100" />
    <rect x="20" y="320" width="100" height="100" />
    <rect x="220" y="320" width="100" height="100" />
  </g>
  <g class="stroke-current fill-none">
    <rect x="20" y="20" width="400" height="400" />
    <line x1="120" y1="20" x2="120" y2="420" />
    <line x1="220" y1="20" x2="220" y2="420" />
    <line x1="320" y1="20" x2="320" y2="420" />
    <line x1="20" y1="120" x2="420" y2="120" />
    <line x1="20" y1="220" x2="420" y2="220" />
    <line x1="20" y1="320" x2="420" y2="320" />
    <line x1="20" y1="20" x2="120" y2="120" />
    <line x1="120" y1="20" x2="20" y2="120" />
    <line x1="320" y1="320" x2="420" y2="420" />
    <line x1="420" y1="320" x2="320" y2="420" />
  </g>
</svg>
