<svg xmlns="http://www.w3.org/2000/svg" viewBox="0 0 440 440">
  <g class="fill-current">
    <rect x="120.00" y="20.00" width="100.00" height="100.00" />
    <rect x="320.00" y="20.00" width="100.00" height="100.00" />
    <rect x="20.00" y="120.00" width="100.00" height="100.00" />
    <rect x="220.00" y="120.00" width="100.00" height="100.00" />
    <rect x="120.00" y="220.00" width="100.00" height="100.00" />
    <rect x="320.00" y="220.00" width="100.00" height="100.00" />
    <rect x="20.00" y="320.00" width="100.00" height="100.00" />
    <rect x="220.00" y="320.00" width="100.00" height="100.00" />
  </g>
  <g class="stroke-current fill-none" stroke-width="2.67">
    <rect x="20.00" y="20.00" width="400.00" height="400.00" />
    <line x1="120.00" y1="20.00" x2="120.00" y2="420.00" />
    <line x1="220.00" y1="20.00" x2="220.00" y2="420.00" />
    <line x1="320.00" y1="20.00" x2="320.00" y2="420.00" />
    <line x1="20.00" y1="120.00" x2="420.00" y2="120.00" />
    <line x1="20.00" y1="220.00" x2="420.00" y2="220.00" />
    <line x1="20.00" y1="320.00" x2="420.00" y2="320.00" />
    <line x1="20.00" y1="20.00" x2="120.00" y2="120.00" stroke-width="5.00" />
    <line x1="120.00" y1="20.00" x2="20.00" y2="120.00" stroke-width="5.00" />
    <line x1="320.00" y1="320.00" x2="420.00" y2="420.00" stroke-width="5.00" />
    <line x1="420.00" y1="320.00" x2="320.00" y2="420.00" stroke-width="5.00" />
  </g>
</svg>