<svg xmlns="http://www.w3.org/2000/svg" viewBox="0 0 440 440" class="stroke-current fill-none">
  <polygon points="50.77,358.46 358.46,358.46 358.46,173.85 50.77,173.85" />
  <polygon points="50.77,173.85 358.46,173.85 420,112.31 112.31,112.31" />
  <polygon points="358.46,358.46 358.46,173.85 420,112.31 420,296.92" />
  <line x1="112.31" y1="173.85" x2="112.31" y2="358.46" />
  <line x1="173.85" y1="173.85" x2="173.85" y2="358.46" />
  <line x1="235.38" y1="173.85" x2="235.38" y2="358.46" />
  <line x1="296.92" y1="173.85" x2="296.92" y2="358.46" />
  <line x1="50.77" y1="235.38" x2="358.46" y2="235.38" />
  <line x1="50.77" y1="296.92" x2="358.46" y2="296.92" />
  <line x1="112.31" y1="173.85" x2="173.85" y2="112.31" />
  <line x1="173.85" y1="173.85" x2="235.38" y2="112.31" />
  <line x1="235.38" y1="173.85" x2="296.92" y2="112.31" />
  <line x1="296.92" y1="173.85" x2="358.46" y2="112.31" />
  <line x1="66.15" y1="158.46" x2="373.85" y2="158.46" />
  <line x1="81.54" y1="143.08" x2="389.23" y2="143.08" />
  <line x1="96.92" y1="127.69" x2="404.62" y2="127.69" />
  <line x1="358.46" y1="235.38" x2="420" y2="173.85" />
  <line x1="358.46" y1="296.92" x2="420" y2="235.38" />
  <line x1="373.85" y1="343.08" x2="373.85" y2="158.46" />
  <line x1="389.23" y1="327.69" x2="389.23" y2="143.08" />
  <line x1="404.62" y1="312.31" x2="404.62" y2="127.69" />
</svg>