<svg xmlns="http://www.w3.org/2000/svg" viewBox="-30 -30 370 250" width="100%">
  <path
    d="M60 60 L120 60 L120 0 L180 0 L180 60 L300 60 L300 180 L60 180 L60 150 L0 150 L0 90 L60 90 Z"
    fill="rgb(59 130 246 / 0.08)"
    stroke-linejoin="round"
    stroke-dasharray="4 3"
    class="stroke-current"
  />
  <rect
    x="0"
    y="0"
    width="300"
    height="180"
    fill="rgb(16 185 129 / 0.10)"
    stroke="rgb(16 185 129)"
  />
  <path
    d="M120 60 L120 0 M180 0 L180 60 M60 150 L0 150 M0 90 L60 90"
    stroke="rgb(59 130 246)"
    stroke-dasharray="3 3"
    class="fill-none"
  />
  <path d="M120 0 L180 0" stroke="rgb(239 68 68)" class="fill-none" />
  <path d="M0 90 L0 150" stroke="rgb(239 68 68)" class="fill-none" />
  <text x="150" y="205" text-anchor="middle" fill="rgb(16 185 129)">
    长 = 12 + 3 = 15 厘米
  </text>
  <text
    x="325"
    y="100"
    text-anchor="middle"
    fill="rgb(16 185 129)"
    transform="rotate(90 325 90)"
  >
    宽 = 6 + 3 = 9 厘米
  </text>
</svg>
