<svg xmlns="http://www.w3.org/2000/svg" viewBox="0 0 500 320" width="500" height="320"><!-- 长方体框架 --><polygon points="120,190 370,190 420,140 170,140" fill="none" stroke="#ccc" stroke-dasharray="4,4"/><polygon points="120,190 370,190 370,280 120,280" fill="none" stroke="#ccc" stroke-dasharray="4,4"/><polygon points="370,190 420,140 420,230 370,280" fill="none" stroke="#ccc" stroke-dasharray="4,4"/><!-- 顶点 --><circle cx="120" cy="190" r="4" fill="#f39c12" opacity="0.5"/><circle cx="370" cy="190" r="4" fill="#f39c12" opacity="0.5"/><circle cx="170" cy="140" r="4" fill="#f39c12" opacity="0.5"/><circle cx="420" cy="140" r="4" fill="#f39c12" opacity="0.5"/><circle cx="120" cy="280" r="4" fill="#f39c12" opacity="0.5"/><circle cx="370" cy="280" r="4" fill="#f39c12" opacity="0.5"/><!-- 高亮高棱 --><line x1="120" y1="190" x2="120" y2="280" stroke="#27ae60" stroke-width="6" stroke-linecap="round" opacity="0.7"/><line x1="370" y1="190" x2="370" y2="280" stroke="#27ae60" stroke-width="6" stroke-linecap="round" opacity="0.7"/><line x1="170" y1="140" x2="170" y2="90" stroke="#27ae60" stroke-width="6" stroke-linecap="round" opacity="0.7"/><text x="100" y="235" font-size="12" fill="#27ae60" text-anchor="end">高棱：共4条</text><text x="245" y="310" font-size="13" fill="#333" text-anchor="middle">每条高棱：3 - 2 = 1 个，4条共 4 × 1 = 4 个</text></svg>
