<svg xmlns="http://www.w3.org/2000/svg" viewBox="0 0 500 200" width="500" height="200"><defs><marker id="arrow1" markerWidth="8" markerHeight="6" refX="8" refY="3" orient="auto"><path d="M0,0 L8,3 L0,6 Z" fill="#e74c3c"/></marker><marker id="arrow2" markerWidth="8" markerHeight="6" refX="8" refY="3" orient="auto"><path d="M0,0 L8,3 L0,6 Z" fill="#3498db"/></marker></defs><circle cx="60" cy="100" r="20" fill="#e74c3c" opacity="0.8"/><text x="60" y="106" font-size="16" fill="currentColor" text-anchor="middle" font-weight="bold">A</text><circle cx="250" cy="100" r="20" fill="#3498db" opacity="0.8"/><text x="250" y="106" font-size="16" fill="currentColor" text-anchor="middle" font-weight="bold">B</text><circle cx="440" cy="100" r="20" fill="currentColor" opacity="0.5"/><text x="440" y="106" font-size="16" fill="currentColor" text-anchor="middle" font-weight="bold">C</text><!-- 高亮 A→B→C 路线 --><path d="M80,85 Q165,70 230,85" fill="none" stroke="#e74c3c" stroke-width="3" marker-end="url(#arrow1)"/><path d="M80,100 L230,100" fill="none" stroke="#e74c3c" stroke-width="3" marker-end="url(#arrow1)"/><path d="M80,115 Q165,130 230,115" fill="none" stroke="#e74c3c" stroke-width="3" marker-end="url(#arrow1)"/><path d="M270,85 Q355,70 420,85" fill="none" stroke="#3498db" stroke-width="3" marker-end="url(#arrow2)"/><path d="M270,93 Q355,90 420,93" fill="none" stroke="#3498db" stroke-width="3" marker-end="url(#arrow2)"/><path d="M270,107 Q355,110 420,107" fill="none" stroke="#3498db" stroke-width="3" marker-end="url(#arrow2)"/><path d="M270,115 Q355,130 420,115" fill="none" stroke="#3498db" stroke-width="3" marker-end="url(#arrow2)"/><text x="155" y="65" font-size="14" fill="#e74c3c" text-anchor="middle" font-weight="bold">3 种</text><text x="345" y="65" font-size="14" fill="#3498db" text-anchor="middle" font-weight="bold">4 种</text><text x="250" y="50" font-size="13" fill="currentColor" text-anchor="middle">第一类：经过B</text><text x="250" y="165" font-size="13" fill="#e74c3c" text-anchor="middle">3 × 4 = 12 种</text></svg>
