<svg xmlns="http://www.w3.org/2000/svg" viewBox="80 60 280 200">
  <g class="stroke-current fill-none">
    <polygon points="100,240 300,240 300,120 100,120" />
    <polygon points="100,120 300,120 340,80 140,80" />
    <polygon points="300,240 300,120 340,80 340,200" />
    <g stroke-opacity="0.35">
      <line x1="140" y1="120" x2="140" y2="240" />
      <line x1="180" y1="120" x2="180" y2="240" />
      <line x1="220" y1="120" x2="220" y2="240" />
      <line x1="260" y1="120" x2="260" y2="240" />
      <line x1="100" y1="160" x2="300" y2="160" />
      <line x1="100" y1="200" x2="300" y2="200" />
      <line x1="140" y1="120" x2="180" y2="80" />
      <line x1="180" y1="120" x2="220" y2="80" />
      <line x1="220" y1="120" x2="260" y2="80" />
      <line x1="260" y1="120" x2="300" y2="80" />
      <line x1="110" y1="110" x2="310" y2="110" />
      <line x1="120" y1="100" x2="320" y2="100" />
      <line x1="130" y1="90" x2="330" y2="90" />
      <line x1="300" y1="160" x2="340" y2="120" />
      <line x1="300" y1="200" x2="340" y2="160" />
      <line x1="310" y1="230" x2="310" y2="110" />
      <line x1="320" y1="220" x2="320" y2="100" />
      <line x1="330" y1="210" x2="330" y2="90" />
    </g>
  </g>
</svg>
