<svg
  xmlns="http://www.w3.org/2000/svg"
  viewBox="0 0 440 280"
  width="526.32"
  height="210.53"
>
  <defs>
    <marker
      id="arrow2"
      markerWidth="8"
      markerHeight="6"
      refX="8"
      refY="3"
      orient="auto"
    >
      <path d="M0,0 L8,3 L0,6 Z" class="fill-current" />
    </marker>
  </defs>
  <circle cx="20.00" cy="132.11" r="20" class="fill-red-500" opacity="0.8" />
  <text
    x="20.00"
    y="138.42"
    fill="currentColor"
    text-anchor="middle"
    font-weight="bold"
  >
    A
  </text>
  <circle cx="220.00" cy="132.11" r="20" class="fill-blue-500" opacity="0.8" />
  <text
    x="220.00"
    y="138.42"
    fill="currentColor"
    text-anchor="middle"
    font-weight="bold"
  >
    B
  </text>
  <circle cx="420.00" cy="132.11" r="20" opacity="0.5" class="fill-current" />
  <text
    x="420.00"
    y="138.42"
    fill="currentColor"
    text-anchor="middle"
    font-weight="bold"
  >
    C
  </text>
  <!--
    高亮 A→B→C 路线 -->
  <path
    d="M104,90 Q174,74 242,90"
    class="stroke-red-500 fill-none"
    marker-end="url(#arrow2)"
  />
  <path
    d="M104,105 L242,105"
    class="stroke-red-500 fill-none"
    marker-end="url(#arrow2)"
  />
  <path
    d="M104,121 Q174,137 242,121"
    class="stroke-red-500 fill-none"
    marker-end="url(#arrow2)"
  />
  <path
    d="M284,90 Q354,74 442,90"
    class="stroke-blue-500 fill-none"
    marker-end="url(#arrow2)"
  />
  <path
    d="M284,98 Q354,95 442,98"
    class="stroke-blue-500 fill-none"
    marker-end="url(#arrow2)"
  />
  <path
    d="M284,113 Q354,116 442,113"
    class="stroke-blue-500 fill-none"
    marker-end="url(#arrow2)"
  />
  <path
    d="M284,121 Q354,137 442,121"
    class="stroke-blue-500 fill-none"
    marker-end="url(#arrow2)"
  />
  <text
    x="120.00"
    y="95.26"
    class="fill-red-500"
    text-anchor="middle"
    font-weight="bold"
  >
    3 种
  </text>
  <text
    x="320.00"
    y="95.26"
    class="fill-blue-500"
    text-anchor="middle"
    font-weight="bold"
  >
    4 种
  </text>
  <text x="220.00" y="79.47" fill="currentColor" text-anchor="middle">
    第一类：经过B
  </text>
  <text x="220.00" y="200.53" class="fill-red-500" text-anchor="middle">
    3 × 4 = 12 种
  </text>
</svg>