<svg xmlns="http://www.w3.org/2000/svg" viewBox="0 0 480 280" class="stroke-current fill-none">
  <polygon points="51,263 358,263 358,79 51,79" />
  <polygon points="51,79 358,79 420,17 112,17" />
  <polygon points="358,263 358,79 420,17 420,202" />
  <line x1="112" y1="79" x2="112" y2="263" />
  <line x1="174" y1="79" x2="174" y2="263" />
  <line x1="235" y1="79" x2="235" y2="263" />
  <line x1="297" y1="79" x2="297" y2="263" />
  <line x1="51" y1="140" x2="358" y2="140" />
  <line x1="51" y1="202" x2="358" y2="202" />
  <line x1="112" y1="79" x2="174" y2="17" />
  <line x1="174" y1="79" x2="235" y2="17" />
  <line x1="235" y1="79" x2="297" y2="17" />
  <line x1="297" y1="79" x2="358" y2="17" />
  <line x1="66" y1="63" x2="374" y2="63" />
  <line x1="82" y1="48" x2="389" y2="48" />
  <line x1="97" y1="33" x2="405" y2="33" />
  <line x1="358" y1="140" x2="420" y2="79" />
  <line x1="358" y1="202" x2="420" y2="140" />
  <line x1="374" y1="248" x2="374" y2="63" />
  <line x1="389" y1="233" x2="389" y2="48" />
  <line x1="405" y1="217" x2="405" y2="33" />
</svg>