<svg xmlns="http://www.w3.org/2000/svg" viewBox="0 0 440 280">
  <g class="stroke-current fill-none">
    <rect x="40" y="20" width="360" height="240" />
    <line x1="145" y1="20" x2="145" y2="260" />
    <line x1="272.50" y1="20" x2="272.50" y2="260" />
    <line x1="40" y1="62" x2="400" y2="62" />
    <line x1="40" y1="101" x2="400" y2="101" />
    <line x1="40" y1="140" x2="400" y2="140" />
    <line x1="40" y1="179" x2="400" y2="179" />
    <line x1="40" y1="221" x2="400" y2="221" />
  </g>
  <g text-anchor="middle" class="fill-current">
    <text x="92.50" y="47" text-anchor="middle">工件</text>
    <text x="208" y="47" text-anchor="middle">机床甲</text>
    <text x="335.50" y="47" text-anchor="middle">机床乙</text>
    <text x="92.50" y="89" text-anchor="middle">A</text>
    <text x="208" y="89" text-anchor="middle">3</text>
    <text x="335.50" y="89" text-anchor="middle">6</text>
    <text x="92.50" y="128" text-anchor="middle">B</text>
    <text x="208" y="128" text-anchor="middle">7</text>
    <text x="335.50" y="128" text-anchor="middle">2</text>
    <text x="92.50" y="167" text-anchor="middle">C</text>
    <text x="208" y="167" text-anchor="middle">4</text>
    <text x="335.50" y="167" text-anchor="middle">7</text>
    <text x="92.50" y="206" text-anchor="middle">D</text>
    <text x="208" y="206" text-anchor="middle">5</text>
    <text x="335.50" y="206" text-anchor="middle">3</text>
    <text x="92.50" y="248" text-anchor="middle">E</text>
    <text x="208" y="248" text-anchor="middle">6</text>
    <text x="335.50" y="248" text-anchor="middle">4</text>
  </g>
</svg>
