<svg xmlns="http://www.w3.org/2000/svg" viewBox="0 0 260 176" font-size="14"><g fill="none" stroke="currentColor"><rect x="10" y="10" width="240" height="160"/><line x1="80" y1="10" x2="80" y2="170"/><line x1="165" y1="10" x2="165" y2="170"/><line x1="10" y1="38" x2="250" y2="38"/><line x1="10" y1="64" x2="250" y2="64"/><line x1="10" y1="90" x2="250" y2="90"/><line x1="10" y1="116" x2="250" y2="116"/><line x1="10" y1="144" x2="250" y2="144"/></g><g fill="currentColor" text-anchor="middle"><text x="45" y="28">工件</text><text x="122" y="28">机床甲</text><text x="207" y="28">机床乙</text><text x="45" y="56">A</text><text x="122" y="56">3</text><text x="207" y="56">6</text><text x="45" y="82">B</text><text x="122" y="82">7</text><text x="207" y="82">2</text><text x="45" y="108">C</text><text x="122" y="108">4</text><text x="207" y="108">7</text><text x="45" y="134">D</text><text x="122" y="134">5</text><text x="207" y="134">3</text><text x="45" y="162">E</text><text x="122" y="162">6</text><text x="207" y="162">4</text></g></svg>
