<svg xmlns="http://www.w3.org/2000/svg" viewBox="0 0 440 280">
  <g class="stroke-current fill-none">
    <rect x="40.00" y="20.00" width="360.00" height="240.00" />
    <line x1="145.00" y1="20.00" x2="145.00" y2="260.00" />
    <line x1="272.50" y1="20.00" x2="272.50" y2="260.00" />
    <line x1="40.00" y1="62.00" x2="400.00" y2="62.00" />
    <line x1="40.00" y1="101.00" x2="400.00" y2="101.00" />
    <line x1="40.00" y1="140.00" x2="400.00" y2="140.00" />
    <line x1="40.00" y1="179.00" x2="400.00" y2="179.00" />
    <line x1="40.00" y1="221.00" x2="400.00" y2="221.00" />
  </g>
  <g text-anchor="middle" class="fill-current">
    <text x="92.50" y="47.00" text-anchor="middle">工件</text>
    <text x="208.00" y="47.00" text-anchor="middle">机床甲</text>
    <text x="335.50" y="47.00" text-anchor="middle">机床乙</text>
    <text x="92.50" y="89.00" text-anchor="middle">A</text>
    <text x="208.00" y="89.00" text-anchor="middle">3</text>
    <text x="335.50" y="89.00" text-anchor="middle">6</text>
    <text x="92.50" y="128.00" text-anchor="middle">B</text>
    <text x="208.00" y="128.00" text-anchor="middle">7</text>
    <text x="335.50" y="128.00" text-anchor="middle">2</text>
    <text x="92.50" y="167.00" text-anchor="middle">C</text>
    <text x="208.00" y="167.00" text-anchor="middle">4</text>
    <text x="335.50" y="167.00" text-anchor="middle">7</text>
    <text x="92.50" y="206.00" text-anchor="middle">D</text>
    <text x="208.00" y="206.00" text-anchor="middle">5</text>
    <text x="335.50" y="206.00" text-anchor="middle">3</text>
    <text x="92.50" y="248.00" text-anchor="middle">E</text>
    <text x="208.00" y="248.00" text-anchor="middle">6</text>
    <text x="335.50" y="248.00" text-anchor="middle">4</text>
  </g>
</svg>
