<svg xmlns="http://www.w3.org/2000/svg" viewBox="0 0 440 440">
  <g class="fill-current">
    <circle cx="220" cy="220" r="30" />
    <circle cx="220" cy="142.20" r="30" />
    <circle cx="289.13" cy="181.10" r="30" />
    <circle cx="289.13" cy="258.90" r="30" />
    <circle cx="220" cy="297.80" r="30" />
    <circle cx="150.87" cy="258.90" r="30" />
    <circle cx="150.87" cy="181.10" r="30" />
    <circle cx="220" cy="64.40" r="30" />
    <circle cx="289.13" cy="103.30" r="30" />
    <circle cx="358.27" cy="142.20" r="30" />
    <circle cx="358.27" cy="220" r="30" />
    <circle cx="358.27" cy="297.80" r="30" />
    <circle cx="289.13" cy="336.70" r="30" />
    <circle cx="220" cy="375.60" r="30" />
    <circle cx="150.87" cy="336.70" r="30" />
    <circle cx="81.73" cy="297.80" r="30" />
    <circle cx="81.73" cy="220" r="30" />
    <circle cx="81.73" cy="142.20" r="30" />
    <circle cx="150.87" cy="103.30" r="30" />
  </g>
  <g class="stroke-current fill-none">
    <line x1="81.73" y1="142.20" x2="358.27" y2="297.80" />
    <line x1="81.73" y1="297.80" x2="358.27" y2="142.20" />
    <line x1="81.73" y1="142.20" x2="81.73" y2="297.80" />
    <line x1="81.73" y1="220" x2="289.13" y2="336.70" />
    <line x1="81.73" y1="220" x2="289.13" y2="103.30" />
    <line x1="150.87" y1="103.30" x2="150.87" y2="336.70" />
    <line x1="150.87" y1="103.30" x2="358.27" y2="220" />
    <line x1="150.87" y1="336.70" x2="358.27" y2="220" />
    <line x1="220" y1="375.60" x2="81.73" y2="297.80" />
    <line x1="220" y1="375.60" x2="358.27" y2="297.80" />
    <line x1="220" y1="64.40" x2="220" y2="375.60" />
    <line x1="220" y1="64.40" x2="358.27" y2="142.20" />
    <line x1="220" y1="64.40" x2="81.73" y2="142.20" />
    <line x1="289.13" y1="103.30" x2="289.13" y2="336.70" />
    <line x1="358.27" y1="142.20" x2="358.27" y2="297.80" />
  </g>
</svg>