<svg xmlns="http://www.w3.org/2000/svg" viewBox="0 0 440 440">
  <g stroke-linejoin="round" class="stroke-current fill-none">
    <polygon points="111,147 293,147 329,111 147,111" />
    <polygon points="111,147 293,147 293,329 111,329" />
    <polygon points="293,147 329,111 329,293 293,329" />
    <line x1="147" y1="111" x2="147" y2="293" stroke-dasharray="4,3" />
    <line x1="147" y1="293" x2="329" y2="293" stroke-dasharray="4,3" />
    <line x1="147" y1="293" x2="111" y2="329" stroke-dasharray="4,3" />
  </g>
  <g class="stroke-current fill-none">
    <circle cx="111" cy="147" r="6" />
    <circle cx="293" cy="147" r="6" />
    <circle cx="329" cy="111" r="6" />
    <circle cx="147" cy="111" r="6" />
    <circle cx="111" cy="329" r="6" />
    <circle cx="293" cy="329" r="6" />
    <circle cx="329" cy="293" r="6" />
    <circle cx="147" cy="293" r="6" />
  </g>
</svg>