<svg xmlns="http://www.w3.org/2000/svg" viewBox="0 0 440 440">
  <g class="stroke-current fill-none">
    <polygon points="20,86 354,86 420,20 86,20" />
    <polygon points="20,86 354,86 354,420 20,420" />
    <polygon points="354,86 420,20 420,354 354,420" />
    <line x1="86" y1="20" x2="86" y2="354" stroke-dasharray="6 3" />
    <line x1="86" y1="354" x2="420" y2="354" stroke-dasharray="6 3" />
    <line x1="86" y1="354" x2="20" y2="420" stroke-dasharray="6 3" />
  </g>
  <g class="fill-current">
    <circle cx="20" cy="86" r="6" />
    <circle cx="354" cy="86" r="6" />
    <circle cx="420" cy="20" r="6" />
    <circle cx="86" cy="20" r="6" />
    <circle cx="20" cy="420" r="6" />
    <circle cx="354" cy="420" r="6" />
    <circle cx="420" cy="354" r="6" />
    <circle cx="86" cy="354" r="6" />
  </g>
</svg>