<svg xmlns="http://www.w3.org/2000/svg" viewBox="0 0 220 220">
  <g stroke-linejoin="round" class="stroke-current fill-none">
    <polygon points="50,70 150,70 170,50 70,50" />
    <polygon points="50,70 150,70 150,170 50,170" />
    <polygon points="150,70 170,50 170,150 150,170" />
    <line x1="70" y1="50" x2="70" y2="150" stroke-dasharray="4,3" />
    <line x1="70" y1="150" x2="170" y2="150" stroke-dasharray="4,3" />
    <line x1="70" y1="150" x2="50" y2="170" stroke-dasharray="4,3" />
  </g>
  <g class="stroke-current fill-none">
    <circle cx="50" cy="70" r="6" />
    <circle cx="150" cy="70" r="6" />
    <circle cx="170" cy="50" r="6" />
    <circle cx="70" cy="50" r="6" />
    <circle cx="50" cy="170" r="6" />
    <circle cx="150" cy="170" r="6" />
    <circle cx="170" cy="150" r="6" />
    <circle cx="70" cy="150" r="6" />
  </g>
</svg>
