<svg xmlns="http://www.w3.org/2000/svg" viewBox="0 0 440 440">
  <g class="stroke-current fill-none">
    <rect x="34.16" y="34.16" width="353.98" height="353.98" class="fill-none" />
  </g>
  <polygon
    points="230,30 163.3,30 230,163.3"
    fill="rgb(46 134 193 / 0.22)"
    class="stroke-current"
  />
  <polygon
    points="230,230 230,163.3 96.7,230"
    fill="rgb(243 156 18 / 0.22)"
    class="stroke-yellow-700"
  />
  <polygon
    points="30,30 163.3,30 96.7,230 30,230"
    fill="rgb(26 188 156 / 0.22)"
    stroke="#117A65"
  />
  <polygon
    points="163.3,30 230,163.3 96.7,230"
    class="fill-red-500/10 stroke-red-500"
  />
  <g class="fill-current">
    <circle cx="34.16" cy="34.16" r="3" />
    <circle cx="388.14" cy="34.16" r="3" />
    <circle cx="388.14" cy="388.14" r="3" />
    <circle cx="34.16" cy="388.14" r="3" />
    <circle cx="270.09" cy="34.16" r="3" />
    <circle cx="388.14" cy="270.09" r="3" />
    <circle cx="152.21" cy="388.14" r="3" />
  </g>
  <g text-anchor="middle" class="fill-current">
    <text x="20.00" y="27.08" text-anchor="middle">A</text>
    <text x="402.30" y="27.08" text-anchor="middle">B</text>
    <text x="405.84" y="409.38" text-anchor="middle">C</text>
    <text x="20.00" y="409.38" text-anchor="middle">D</text>
    <text x="269.56" y="20.00" text-anchor="middle">E</text>
    <text x="420.00" y="276.64" text-anchor="middle">F</text>
    <text x="152.74" y="420.00" text-anchor="middle">G</text>
  </g>
  <g text-anchor="middle" class="fill-current">
    <text x="343.89" y="104.96" text-anchor="middle">△BEF=16</text>
    <text x="335.04" y="352.74" text-anchor="middle">△CFG=16</text>
    <text x="140.35" y="193.45" text-anchor="middle">梯形 AEGD=72</text>
    <text x="273.10" y="246.55" class="fill-red-800" text-anchor="middle">
      △EFG=40
    </text>
  </g>
</svg>