<svg xmlns="http://www.w3.org/2000/svg" viewBox="0 0 260 260">
  <g class="stroke-current fill-none">
    <rect x="30" y="30" width="200" height="200" class="fill-none" />
  </g>
  <polygon
    points="230,30 163.3,30 230,163.3"
    fill="rgb(46 134 193 / 0.22)"
    class="stroke-current"
  />
  <polygon
    points="230,230 230,163.3 96.7,230"
    fill="rgb(243 156 18 / 0.22)"
    class="stroke-yellow-700"
  />
  <polygon
    points="30,30 163.3,30 96.7,230 30,230"
    fill="rgb(26 188 156 / 0.22)"
    stroke="#117A65"
  />
  <polygon
    points="163.3,30 230,163.3 96.7,230"
    class="fill-red-700/30 stroke-red-500"
  />
  <g class="fill-current">
    <circle cx="30" cy="30" r="3" />
    <circle cx="230" cy="30" r="3" />
    <circle cx="230" cy="230" r="3" />
    <circle cx="30" cy="230" r="3" />
    <circle cx="163.3" cy="30" r="3" />
    <circle cx="230" cy="163.3" r="3" />
    <circle cx="96.7" cy="230" r="3" />
  </g>
  <g text-anchor="middle" class="fill-current">
    <text x="22" y="26" text-anchor="middle">A</text>
    <text x="238" y="26" text-anchor="middle">B</text>
    <text x="240" y="242" text-anchor="middle">C</text>
    <text x="22" y="242" text-anchor="middle">D</text>
    <text x="163" y="22" text-anchor="middle">E</text>
    <text x="248" y="167" text-anchor="middle">F</text>
    <text x="97" y="248" text-anchor="middle">G</text>
  </g>
  <g text-anchor="middle" class="fill-current">
    <text x="205" y="70" text-anchor="middle">△BEF=16</text>
    <text x="200" y="210" text-anchor="middle">△CFG=16</text>
    <text x="90" y="120" text-anchor="middle">梯形 AEGD=72</text>
    <text x="165" y="150" class="fill-red-800" text-anchor="middle">
      △EFG=40
    </text>
  </g>
</svg>
