<svg xmlns="http://www.w3.org/2000/svg" viewBox="0 0 260 260" font-size="11"><g fill="none" stroke="currentColor"><rect x="30" y="30" width="200" height="200" fill="none"/></g><polygon points="230,30 163.3,30 230,163.3" fill="rgb(46 134 193 / 0.22)" stroke="currentColor"/><polygon points="230,230 230,163.3 96.7,230" fill="rgb(243 156 18 / 0.22)" stroke="#B9770E"/><polygon points="30,30 163.3,30 96.7,230 30,230" fill="rgb(26 188 156 / 0.22)" stroke="#117A65"/><polygon points="163.3,30 230,163.3 96.7,230" fill="rgb(169 50 38 / 0.30)" stroke="#A93226"/><g fill="currentColor"><circle cx="30" cy="30" r="3"/><circle cx="230" cy="30" r="3"/><circle cx="230" cy="230" r="3"/><circle cx="30" cy="230" r="3"/><circle cx="163.3" cy="30" r="3"/><circle cx="230" cy="163.3" r="3"/><circle cx="96.7" cy="230" r="3"/></g><g fill="currentColor" text-anchor="middle"><text x="22" y="26">A</text><text x="238" y="26">B</text><text x="240" y="242">C</text><text x="22" y="242">D</text><text x="163" y="22">E</text><text x="248" y="167">F</text><text x="97" y="248">G</text></g><g fill="currentColor" text-anchor="middle" font-size="10"><text x="205" y="70">△BEF=16</text><text x="200" y="210">△CFG=16</text><text x="90" y="120">梯形 AEGD=72</text><text x="165" y="150" fill="#A93226">△EFG=40</text></g></svg>
