<svg xmlns="http://www.w3.org/2000/svg" viewBox="0 0 440 440">
  <polygon
    points="399,220 325,91 176,91 101,220 176,349 325,349"
    fill="rgb(46 134 193 / 0.06)"
    class="stroke-current"
  />
  <polygon
    points="399,220 325,91 176,91 101,220"
    fill="rgb(241 196 15 / 0.20)"
    class="stroke-amber-700"
  />
  <polygon
    points="325,91 176,91 250,134"
    class="fill-red-500/10 stroke-red-500"
  />
  <g class="fill-current">
    <circle cx="399" cy="220" r="2.5" />
    <circle cx="325" cy="91" r="2.5" />
    <circle cx="176" cy="91" r="2.5" />
    <circle cx="101" cy="220" r="2.5" />
    <circle cx="176" cy="349" r="2.5" />
    <circle cx="325" cy="349" r="2.5" />
    <circle cx="250" cy="134" r="2.5" />
  </g>
  <g text-anchor="middle" class="fill-current">
    <text x="420" y="222" text-anchor="middle">A</text>
    <text x="321" y="46" text-anchor="middle">B</text>
    <text x="120" y="46" text-anchor="middle">C</text>
    <text x="20" y="222" text-anchor="middle">D</text>
    <text x="120" y="394" text-anchor="middle">E</text>
    <text x="321" y="394" text-anchor="middle">F</text>
    <text x="250" y="144" class="fill-red-800" text-anchor="middle">P</text>
  </g>
  <g text-anchor="middle" class="fill-current">
    <text x="250" y="197" text-anchor="middle">梯形 ABCD = 1/2</text>
    <text x="250" y="56" class="fill-red-800" text-anchor="middle">
      △BCP = 1/18
    </text>
  </g>
</svg>