<svg xmlns="http://www.w3.org/2000/svg" viewBox="-150 -150 300 300" font-size="11"><polygon points="100,0 50,-86.6 -50,-86.6 -100,0 -50,86.6 50,86.6" fill="rgb(46 134 193 / 0.06)" stroke="currentColor"/><polygon points="100,0 50,-86.6 -50,-86.6 -100,0" fill="rgb(241 196 15 / 0.20)" stroke="#B7950B"/><polygon points="50,-86.6 -50,-86.6 0,-57.7" fill="rgb(169 50 38 / 0.35)" stroke="#A93226"/><g fill="currentColor"><circle cx="100" cy="0" r="2.5"/><circle cx="50" cy="-86.6" r="2.5"/><circle cx="-50" cy="-86.6" r="2.5"/><circle cx="-100" cy="0" r="2.5"/><circle cx="-50" cy="86.6" r="2.5"/><circle cx="50" cy="86.6" r="2.5"/><circle cx="0" cy="-57.7" r="2.5"/></g><g fill="currentColor" text-anchor="middle" font-size="12"><text x="112" y="4">A</text><text x="56" y="-96">B</text><text x="-58" y="-96">C</text><text x="-115" y="4">D</text><text x="-58" y="102">E</text><text x="56" y="102">F</text><text x="0" y="-40" fill="#A93226">P</text></g><g fill="currentColor" text-anchor="middle" font-size="10"><text x="0" y="-10">梯形 ABCD = 1/2</text><text x="0" y="-90" fill="#A93226">△BCP = 1/18</text></g></svg>
