<svg xmlns="http://www.w3.org/2000/svg" viewBox="0 0 420 280" font-size="11"><g fill="none" stroke="currentColor"><polygon points="40,240 390,240 110,30"/></g><g stroke="currentColor" fill="none"><line x1="110" y1="30" x2="110" y2="240"/><line x1="110" y1="30" x2="110" y2="240"/></g><g stroke="#A93226" fill="none"><line x1="110" y1="240" x2="320" y2="82.5"/></g><g stroke="currentColor" fill="none"><line x1="110" y1="30" x2="180" y2="187.5"/></g><g fill="currentColor"><circle cx="40" cy="240" r="3"/><circle cx="390" cy="240" r="3"/><circle cx="110" cy="30" r="3"/><circle cx="110" cy="240" r="3"/><circle cx="320" cy="82.5" r="3"/><circle cx="180" cy="187.5" r="3"/><circle cx="250" cy="135" r="3"/><circle cx="145" cy="108.75" r="3"/></g><g fill="currentColor" text-anchor="middle"><text x="32" y="255">B</text><text x="398" y="255">C</text><text x="110" y="22">A</text><text x="110" y="256">D</text><text x="332" y="80">E</text><text x="172" y="204">G</text><text x="260" y="150">S</text><text x="132" y="105">F</text></g><g fill="currentColor" font-size="10" text-anchor="middle"><text x="80" y="255">BC = 5BD</text><text x="275" y="235">AC = 4EC</text><text x="235" y="205">DG = GS = SE</text></g></svg>
