<svg xmlns="http://www.w3.org/2000/svg" viewBox="0 0 420 270" font-size="11"><polygon points="30,240 390,240 150,30" fill="none" stroke="currentColor"/><line x1="102" y1="240" x2="330" y2="187.5" stroke="currentColor"/><line x1="150" y1="30" x2="178" y2="222.5" stroke="currentColor"/><polygon points="164,126.25 178,222.5 254,205" fill="currentColor" fill-opacity="0.12" stroke="currentColor"/><g fill="currentColor"><circle cx="150" cy="30" r="2.5"/><circle cx="30" cy="240" r="2.5"/><circle cx="390" cy="240" r="2.5"/><circle cx="102" cy="240" r="2.5"/><circle cx="330" cy="187.5" r="2.5"/><circle cx="178" cy="222.5" r="2.5"/><circle cx="254" cy="205" r="2.5"/><circle cx="164" cy="126.25" r="2.5"/></g><g fill="currentColor" text-anchor="middle"><text x="150" y="22">A</text><text x="22" y="254">B</text><text x="400" y="254">C</text><text x="102" y="256">D</text><text x="340" y="184">E</text><text x="184" y="216">G</text><text x="262" y="199">S</text><text x="154" y="122">F</text></g></svg>
