<svg xmlns="http://www.w3.org/2000/svg" viewBox="0 0 440 280">
  <polygon points="34,244 404,244 158,28" class="stroke-current fill-none" />
  <line x1="108" y1="244" x2="342" y2="190" class="stroke-current" />
  <line x1="157" y1="28" x2="186" y2="226" class="stroke-current" />
  <polygon
    points="172,127 186,226 264,208"
    fill-opacity="0.12"
    class="stroke-current fill-current"
  />
  <g class="fill-current">
    <circle cx="157" cy="28" r="2.5" />
    <circle cx="34" cy="244" r="2.5" />
    <circle cx="404" cy="244" r="2.5" />
    <circle cx="108" cy="244" r="2.5" />
    <circle cx="342" cy="190" r="2.5" />
    <circle cx="186" cy="226" r="2.5" />
    <circle cx="264" cy="208" r="2.5" />
    <circle cx="172" cy="127" r="2.5" />
  </g>
  <g text-anchor="middle" class="fill-current">
    <text x="157" y="20" text-anchor="middle">A</text>
    <text x="26" y="258" text-anchor="middle">B</text>
    <text x="414" y="258" text-anchor="middle">C</text>
    <text x="108" y="260" text-anchor="middle">D</text>
    <text x="352" y="186" text-anchor="middle">E</text>
    <text x="192" y="219" text-anchor="middle">G</text>
    <text x="272" y="202" text-anchor="middle">S</text>
    <text x="162" y="123" text-anchor="middle">F</text>
  </g>
</svg>