<svg xmlns="http://www.w3.org/2000/svg" viewBox="-300 -360 500 640">
  <polygon
    points="0,0 160,0 0,-320"
    fill="rgb(241 196 15 / 0.35)"
    stroke="none"
  />
  <polygon
    points="80,0 160,0 80,240"
    fill="rgb(26 188 156 / 0.35)"
    stroke="none"
  />
  <polygon
    points="80,80 80,240 -240,80"
    fill="rgb(142 68 173 / 0.30)"
    stroke="none"
  />
  <polygon
    points="0,80 -240,80 0,-320"
    fill="rgb(243 156 18 / 0.30)"
    stroke="none"
  />
  <polygon
    points="0,0 80,0 80,80 0,80"
    fill="rgb(46 134 193 / 0.30)"
    class="stroke-current"
  />
  <polygon
    points="160,0 80,240 -240,80 0,-320"
    class="stroke-red-500 fill-none"
  />
  <g stroke-dasharray="4 3" class="stroke-current fill-none">
    <line x1="80" y1="0" x2="160" y2="0" />
    <line x1="80" y1="80" x2="80" y2="240" />
    <line x1="0" y1="80" x2="-240" y2="80" />
    <line x1="0" y1="0" x2="0" y2="-320" />
  </g>
  <g class="fill-current">
    <circle cx="0" cy="0" r="3" />
    <circle cx="80" cy="0" r="3" />
    <circle cx="80" cy="80" r="3" />
    <circle cx="0" cy="80" r="3" />
    <circle cx="160" cy="0" r="3" />
    <circle cx="80" cy="240" r="3" />
    <circle cx="-240" cy="80" r="3" />
    <circle cx="0" cy="-320" r="3" />
  </g>
  <g text-anchor="middle" class="fill-current">
    <text x="-10" y="-5" text-anchor="middle">A</text>
    <text x="85" y="-5" text-anchor="middle">B</text>
    <text x="92" y="88" text-anchor="middle">C</text>
    <text x="-10" y="88" text-anchor="middle">D</text>
    <text x="170" y="-5" text-anchor="middle">E</text>
    <text x="88" y="254" text-anchor="middle">F</text>
    <text x="-255" y="78" text-anchor="middle">G</text>
    <text x="-8" y="-328" text-anchor="middle">H</text>
  </g>
  <g text-anchor="middle" class="fill-current">
    <text x="40" y="45" text-anchor="middle">ABCD = 2</text>
    <text x="60" y="-80" text-anchor="middle">△AHE = 8</text>
    <text x="115" y="90" text-anchor="middle">△BEF = 3</text>
    <text x="-30" y="150" text-anchor="middle">△CFG = 8</text>
    <text x="-110" y="-60" text-anchor="middle">△DGH = 15</text>
  </g>
</svg>
