<svg xmlns="http://www.w3.org/2000/svg" viewBox="0 0 280 440">
  <g class="fill-blue-500/12 stroke-current">
    <polygon points="164,244 212,244 212,292 164,292" />
  </g>
  <g class="stroke-red-500 fill-none">
    <polygon points="260,244 212,388 20,292 164,52" />
  </g>
  <g stroke-dasharray="6 3" class="stroke-current fill-none">
    <line x1="212" y1="244" x2="260" y2="244" />
    <line x1="212" y1="292" x2="212" y2="388" />
    <line x1="164" y1="292" x2="20" y2="292" />
    <line x1="164" y1="244" x2="164" y2="52" />
  </g>
  <g class="fill-current">
    <circle cx="164" cy="244" r="3" />
    <circle cx="212" cy="244" r="3" />
    <circle cx="212" cy="292" r="3" />
    <circle cx="164" cy="292" r="3" />
    <circle cx="260" cy="244" r="3" />
    <circle cx="212" cy="388" r="3" />
    <circle cx="20" cy="292" r="3" />
    <circle cx="164" cy="52" r="3" />
  </g>
  <g text-anchor="middle" class="fill-current">
    <text x="158" y="242" text-anchor="middle">A</text>
    <text x="215" y="242" text-anchor="middle">B</text>
    <text x="218" y="296" text-anchor="middle">C</text>
    <text x="158" y="296" text-anchor="middle">D</text>
    <text x="265" y="242" text-anchor="middle">E</text>
    <text x="215" y="395" text-anchor="middle">F</text>
    <text x="12" y="292" text-anchor="middle">G</text>
    <text x="159" y="48" text-anchor="middle">H</text>
  </g>
</svg>