<svg xmlns="http://www.w3.org/2000/svg" viewBox="0 0 280 440">
  <polygon
    points="164,244 260,244 164,52"
    fill="rgb(241 196 15 / 0.35)"
    stroke="none"
  />
  <polygon
    points="212,244 260,244 212,388"
    fill="rgb(26 188 156 / 0.35)"
    stroke="none"
  />
  <polygon
    points="212,292 212,388 20,292"
    fill="rgb(142 68 173 / 0.30)"
    stroke="none"
  />
  <polygon
    points="164,292 20,292 164,52"
    fill="rgb(243 156 18 / 0.30)"
    stroke="none"
  />
  <polygon
    points="164,244 212,244 212,292 164,292"
    fill="rgb(46 134 193 / 0.30)"
    class="stroke-current"
  />
  <polygon
    points="260,244 212,388 20,292 164,52"
    class="stroke-red-500 fill-none"
  />
  <g stroke-dasharray="6 3" class="stroke-current fill-none">
    <line x1="212" y1="244" x2="260" y2="244" />
    <line x1="212" y1="292" x2="212" y2="388" />
    <line x1="164" y1="292" x2="20" y2="292" />
    <line x1="164" y1="244" x2="164" y2="52" />
  </g>
  <g class="fill-current">
    <circle cx="164" cy="244" r="3" />
    <circle cx="212" cy="244" r="3" />
    <circle cx="212" cy="292" r="3" />
    <circle cx="164" cy="292" r="3" />
    <circle cx="260" cy="244" r="3" />
    <circle cx="212" cy="388" r="3" />
    <circle cx="20" cy="292" r="3" />
    <circle cx="164" cy="52" r="3" />
  </g>
  <g text-anchor="middle" class="fill-current">
    <text x="158" y="242" text-anchor="middle">A</text>
    <text x="215" y="242" text-anchor="middle">B</text>
    <text x="218" y="296" text-anchor="middle">C</text>
    <text x="158" y="296" text-anchor="middle">D</text>
    <text x="265" y="242" text-anchor="middle">E</text>
    <text x="215" y="395" text-anchor="middle">F</text>
    <text x="12" y="292" text-anchor="middle">G</text>
    <text x="159" y="48" text-anchor="middle">H</text>
  </g>
  <g text-anchor="middle" class="fill-current">
    <text x="186" y="266" text-anchor="middle">ABCD = 2</text>
    <text x="197" y="196" text-anchor="middle">△AHE = 8</text>
    <text x="228" y="292" text-anchor="middle">△BEF = 3</text>
    <text x="147" y="326" text-anchor="middle">△CFG = 8</text>
    <text x="101" y="207" text-anchor="middle">△DGH = 15</text>
  </g>
</svg>