<svg xmlns="http://www.w3.org/2000/svg" viewBox="-300 -360 500 640">
  <g class="fill-blue-500/12 stroke-current">
    <polygon points="0,0 80,0 80,80 0,80" />
  </g>
  <g class="stroke-red-500 fill-none">
    <polygon points="160,0 80,240 -240,80 0,-320" />
  </g>
  <g stroke-dasharray="4 3" class="stroke-current fill-none">
    <line x1="80" y1="0" x2="160" y2="0" />
    <line x1="80" y1="80" x2="80" y2="240" />
    <line x1="0" y1="80" x2="-240" y2="80" />
    <line x1="0" y1="0" x2="0" y2="-320" />
  </g>
  <g class="fill-current">
    <circle cx="0" cy="0" r="3" />
    <circle cx="80" cy="0" r="3" />
    <circle cx="80" cy="80" r="3" />
    <circle cx="0" cy="80" r="3" />
    <circle cx="160" cy="0" r="3" />
    <circle cx="80" cy="240" r="3" />
    <circle cx="-240" cy="80" r="3" />
    <circle cx="0" cy="-320" r="3" />
  </g>
  <g text-anchor="middle" class="fill-current">
    <text x="-10" y="-5" text-anchor="middle">A</text>
    <text x="85" y="-5" text-anchor="middle">B</text>
    <text x="92" y="88" text-anchor="middle">C</text>
    <text x="-10" y="88" text-anchor="middle">D</text>
    <text x="170" y="-5" text-anchor="middle">E</text>
    <text x="88" y="254" text-anchor="middle">F</text>
    <text x="-255" y="78" text-anchor="middle">G</text>
    <text x="-8" y="-328" text-anchor="middle">H</text>
  </g>
</svg>
