<svg xmlns="http://www.w3.org/2000/svg" viewBox="-150 -150 300 300">
  <polygon
    points="100,0 50,-86.6 -50,-86.6 -100,0 -50,86.6 50,86.6"
    fill="rgb(46 134 193 / 0.06)"
    class="stroke-current"
  />
  <polygon
    points="100,0 50,-86.6 -50,-86.6 -100,0"
    fill="rgb(241 196 15 / 0.20)"
    class="stroke-amber-700"
  />
  <polygon
    points="50,-86.6 -50,-86.6 0,-57.7"
    class="fill-red-700/35 stroke-red-500"
  />
  <g class="fill-current">
    <circle cx="100" cy="0" r="2.5" />
    <circle cx="50" cy="-86.6" r="2.5" />
    <circle cx="-50" cy="-86.6" r="2.5" />
    <circle cx="-100" cy="0" r="2.5" />
    <circle cx="-50" cy="86.6" r="2.5" />
    <circle cx="50" cy="86.6" r="2.5" />
    <circle cx="0" cy="-57.7" r="2.5" />
  </g>
  <g text-anchor="middle" class="fill-current">
    <text x="112" y="4" text-anchor="middle">A</text>
    <text x="56" y="-96" text-anchor="middle">B</text>
    <text x="-58" y="-96" text-anchor="middle">C</text>
    <text x="-115" y="4" text-anchor="middle">D</text>
    <text x="-58" y="102" text-anchor="middle">E</text>
    <text x="56" y="102" text-anchor="middle">F</text>
    <text x="0" y="-40" class="fill-red-800" text-anchor="middle">P</text>
  </g>
  <g text-anchor="middle" class="fill-current">
    <text x="0" y="-10" text-anchor="middle">梯形 ABCD = 1/2</text>
    <text x="0" y="-90" class="fill-red-800" text-anchor="middle">
      △BCP = 1/18
    </text>
  </g>
</svg>
