<svg xmlns="http://www.w3.org/2000/svg" viewBox="-300 -360 500 640" font-size="11"><g fill="rgb(46 134 193 / 0.12)" stroke="currentColor"><polygon points="0,0 80,0 80,80 0,80"/></g><g fill="none" stroke="#A93226"><polygon points="160,0 80,240 -240,80 0,-320"/></g><g fill="none" stroke="currentColor" stroke-dasharray="4 3"><line x1="80" y1="0" x2="160" y2="0"/><line x1="80" y1="80" x2="80" y2="240"/><line x1="0" y1="80" x2="-240" y2="80"/><line x1="0" y1="0" x2="0" y2="-320"/></g><g fill="currentColor"><circle cx="0" cy="0" r="3"/><circle cx="80" cy="0" r="3"/><circle cx="80" cy="80" r="3"/><circle cx="0" cy="80" r="3"/><circle cx="160" cy="0" r="3"/><circle cx="80" cy="240" r="3"/><circle cx="-240" cy="80" r="3"/><circle cx="0" cy="-320" r="3"/></g><g fill="currentColor" text-anchor="middle"><text x="-10" y="-5">A</text><text x="85" y="-5">B</text><text x="92" y="88">C</text><text x="-10" y="88">D</text><text x="170" y="-5">E</text><text x="88" y="254">F</text><text x="-255" y="78">G</text><text x="-8" y="-328">H</text></g></svg>
