<svg xmlns="http://www.w3.org/2000/svg" viewBox="0 0 360 240">
  <g class="stroke-current fill-none">
    <polygon points="40,210 310,210 100,30" />
  </g>
  <g class="stroke-current fill-none">
    <line x1="100" y1="30" x2="130" y2="210" />
    <line x1="40" y1="210" x2="240" y2="150" />
    <line x1="310" y1="210" x2="80" y2="90" />
  </g>
  <g class="fill-red-700/30 stroke-red-500">
    <polygon points="211,159 113,107 126,184" />
  </g>
  <g class="fill-current">
    <circle cx="40" cy="210" r="3" />
    <circle cx="310" cy="210" r="3" />
    <circle cx="100" cy="30" r="3" />
    <circle cx="80" cy="90" r="3" />
    <circle cx="130" cy="210" r="3" />
    <circle cx="240" cy="150" r="3" />
    <circle cx="126" cy="184" r="3" />
    <circle cx="211" cy="159" r="3" />
    <circle cx="113" cy="107" r="3" />
  </g>
  <g text-anchor="middle" class="fill-current">
    <text x="32" y="225" text-anchor="middle">B</text>
    <text x="318" y="225" text-anchor="middle">C</text>
    <text x="100" y="22" text-anchor="middle">A</text>
    <text x="68" y="88" text-anchor="middle">D</text>
    <text x="130" y="225" text-anchor="middle">E</text>
    <text x="252" y="146" text-anchor="middle">F</text>
    <text x="120" y="198" text-anchor="middle">G</text>
    <text x="222" y="156" text-anchor="middle">H</text>
    <text x="102" y="102" text-anchor="middle">I</text>
  </g>
</svg>
