<svg xmlns="http://www.w3.org/2000/svg" viewBox="0 0 440 440">
  <g class="fill-red-500/10 stroke-red-500">
    <path d="M220,220 L220,60 A160,160 0 0,1 333.14,106.86 Z" />
    <path d="M220,220 L380,220 A160,160 0 0,1 333.14,333.14 Z" />
    <path d="M220,220 L220,380 A160,160 0 0,1 106.86,333.14 Z" />
  </g>
  <g class="fill-blue-500/10 stroke-blue-500">
    <path d="M220,220 L333.14,106.86 A160,160 0 0,1 380,220 Z" />
    <path d="M220,220 L333.14,333.14 A160,160 0 0,1 220,380 Z" />
    <path d="M220,220 L106.86,333.14 A160,160 0 0,1 60,220 Z" />
    <path d="M220,220 L60,220 A160,160 0 0,1 106.86,106.86 Z" />
    <path d="M220,220 L106.86,106.86 A160,160 0 0,1 220,60 Z" />
  </g>
</svg>
