<svg xmlns="http://www.w3.org/2000/svg" viewBox="0 0 200 200" font-size="12">
  <g class="fill-red-500/20 stroke-red-500">
    <path d="M100,100 L100,20 A80,80 0 0,1 156.57,43.43 Z" />
    <path d="M100,100 L180,100 A80,80 0 0,1 156.57,156.57 Z" />
    <path d="M100,100 L100,180 A80,80 0 0,1 43.43,156.57 Z" />
  </g>
  <g class="fill-blue-500/20 stroke-blue-500">
    <path d="M100,100 L156.57,43.43 A80,80 0 0,1 180,100 Z" />
    <path d="M100,100 L156.57,156.57 A80,80 0 0,1 100,180 Z" />
    <path d="M100,100 L43.43,156.57 A80,80 0 0,1 20,100 Z" />
    <path d="M100,100 L20,100 A80,80 0 0,1 43.43,43.43 Z" />
    <path d="M100,100 L43.43,43.43 A80,80 0 0,1 100,20 Z" />
  </g>
  <g class="fill-current">
    <circle cx="100" cy="100" r="3" />
    <path d="M100,10 L95,25 L100,20 L105,25 Z" />
  </g>
</svg>