<svg viewBox="0 0 440 440" xmlns="http://www.w3.org/2000/svg" class="stroke-current fill-none">
  <g class="stroke-current fill-none">
    <line x1="20" y1="20" x2="420" y2="20" />
    <line x1="20" y1="70" x2="420" y2="70" />
    <line x1="20" y1="120" x2="420" y2="120" />
    <line x1="20" y1="170" x2="420" y2="170" />
    <line x1="20" y1="220" x2="420" y2="220" />
    <line x1="20" y1="270" x2="420" y2="270" />
    <line x1="20" y1="320" x2="420" y2="320" />
    <line x1="20" y1="370" x2="420" y2="370" />
    <line x1="20" y1="420" x2="420" y2="420" />
    <line x1="20" y1="20" x2="20" y2="420" />
    <line x1="70" y1="20" x2="70" y2="420" />
    <line x1="120" y1="20" x2="120" y2="420" />
    <line x1="170" y1="20" x2="170" y2="420" />
    <line x1="220" y1="20" x2="220" y2="420" />
    <line x1="270" y1="20" x2="270" y2="420" />
    <line x1="320" y1="20" x2="320" y2="420" />
    <line x1="370" y1="20" x2="370" y2="420" />
    <line x1="420" y1="20" x2="420" y2="420" />
    <rect x="20" y="20" width="400" height="400" />
  </g>

  <g class="fill-current/10">
    <rect x="20" y="20" width="200" height="200" />
    <rect x="220" y="220" width="200" height="200" />
  </g>
</svg>
