<svg viewBox="0 0 440 440" xmlns="http://www.w3.org/2000/svg" class="stroke-current fill-none">
  <g class="stroke-current fill-none">
    <line x1="20.00" y1="20.00" x2="420.00" y2="20.00" />
    <line x1="20.00" y1="70.00" x2="420.00" y2="70.00" />
    <line x1="20.00" y1="120.00" x2="420.00" y2="120.00" />
    <line x1="20.00" y1="170.00" x2="420.00" y2="170.00" />
    <line x1="20.00" y1="220.00" x2="420.00" y2="220.00" />
    <line x1="20.00" y1="270.00" x2="420.00" y2="270.00" />
    <line x1="20.00" y1="320.00" x2="420.00" y2="320.00" />
    <line x1="20.00" y1="370.00" x2="420.00" y2="370.00" />
    <line x1="20.00" y1="420.00" x2="420.00" y2="420.00" />
    <line x1="20.00" y1="20.00" x2="20.00" y2="420.00" />
    <line x1="70.00" y1="20.00" x2="70.00" y2="420.00" />
    <line x1="120.00" y1="20.00" x2="120.00" y2="420.00" />
    <line x1="170.00" y1="20.00" x2="170.00" y2="420.00" />
    <line x1="220.00" y1="20.00" x2="220.00" y2="420.00" />
    <line x1="270.00" y1="20.00" x2="270.00" y2="420.00" />
    <line x1="320.00" y1="20.00" x2="320.00" y2="420.00" />
    <line x1="370.00" y1="20.00" x2="370.00" y2="420.00" />
    <line x1="420.00" y1="20.00" x2="420.00" y2="420.00" />
    <rect x="20.00" y="20.00" width="400.00" height="400.00" />
  </g>

  <g class="fill-current/10">
    <rect x="20.00" y="20.00" width="200.00" height="200.00" />
    <rect x="220.00" y="220.00" width="200.00" height="200.00" />
  </g>
</svg>