<svg viewBox="0 0 440 280" xmlns="http://www.w3.org/2000/svg" class="stroke-current fill-none">
  <path d="M 22 248 L 310 248 L 310 104 L 22 104 Z" />
  <path d="M 22 104 L 130 32 L 418 32 L 310 104" />
  <path d="M 310 248 L 418 176 L 418 32" />
  <g stroke-dasharray="6 3">
    <path d="M 22 248 L 130 176 L 130 32" />
    <path d="M 130 176 L 418 176" />
    <line x1="94" y1="248" x2="94" y2="104" />
    <line x1="166" y1="248" x2="166" y2="104" />
    <line x1="238" y1="248" x2="238" y2="104" />
    <line x1="94" y1="104" x2="202" y2="32" />
    <line x1="166" y1="104" x2="274" y2="32" />
    <line x1="238" y1="104" x2="346" y2="32" />
    <line x1="58" y1="80" x2="346" y2="80" />
    <line x1="94" y1="56" x2="382" y2="56" />
    <line x1="346" y1="224" x2="346" y2="80" />
    <line x1="382" y1="200" x2="382" y2="56" />
    <line x1="310" y1="176" x2="418" y2="104" />
  </g>
  <g class="fill-primary/10 stroke-primary">
    <path d="M 238 104 L 310 104 L 310 176 L 238 176 Z" />
    <path d="M 238 104 L 310 104 L 346 80 L 274 80 Z" />
    <path d="M 310 104 L 346 80 L 346 152 L 310 176 Z" />
  </g>
</svg>
