<svg viewBox="0 0 440 220" xmlns="http://www.w3.org/2000/svg" class="stroke-current fill-none">
  <g class="stroke-current fill-none">
    <rect x="70" y="60" width="300" height="20" />
    <rect x="200" y="35" width="60" height="22" />
    <line x1="70" y1="95" x2="370" y2="95" />
    <line x1="70" y1="80" x2="70" y2="100" />
    <line x1="370" y1="80" x2="370" y2="100" />
    <rect x="70" y="150" width="200" height="20" />
    <rect x="120" y="125" width="60" height="22" />
    <line x1="70" y1="185" x2="270" y2="185" />
    <line x1="70" y1="170" x2="70" y2="190" />
    <line x1="270" y1="170" x2="270" y2="190" />
  </g>
  <g class="fill-current">
    <circle cx="212" cy="60" r="3" />
    <circle cx="248" cy="60" r="3" />
    <circle cx="132" cy="150" r="3" />
    <circle cx="168" cy="150" r="3" />
    <text x="230" y="51" text-anchor="middle">车</text>
    <text x="220" y="75" text-anchor="middle">桥</text>
    <text x="220" y="111" text-anchor="middle">桥长 600 米，过桥用 50 秒</text>
    <text x="150" y="141" text-anchor="middle">车</text>
    <text x="170" y="165" text-anchor="middle">隧道</text>
    <text x="170" y="201" text-anchor="middle">隧道长 400 米，过隧道用 40 秒</text>
  </g>
</svg>
